<?xml version="1.0" encoding="utf-8"?>
<!-- Generator: Adobe Illustrator 21.0.2, SVG Export Plug-In . SVG Version: 6.00 Build 0)  -->
<svg version="1.1" id="a11dcf94-02e4-448c-aa1e-cfae5c49b9a0"
	 xmlns="http://www.w3.org/2000/svg" xmlns:xlink="http://www.w3.org/1999/xlink" x="0px" y="0px" viewBox="0 0 1137 776.6"
	 style="enable-background:new 0 0 1137 776.6;" xml:space="preserve">
<style type="text/css">
	.st0{fill:#F2F2F2;}
	.st1{fill:#00BAF4;}
	.st2{opacity:0.1;enable-background:new    ;}
	.st3{fill:#3F3D56;}
	.st4{fill:#FFFFFF;}
	.st5{fill:#FF6584;}
	.st6{fill:#2F2E41;}
	.st7{fill:#A0616A;}
</style>
<title>around the world</title>
<path d="M1134.6,437.9c-5.1,43.5-15.6,78.4-30.1,106.3c-19.3,37.1-52.2,52.1-81.7,67.7c-8.5,4.5-17.4,8.4-26.5,11.5
	c-53.6,18.6-113.6,13.7-160.7,3.8c-33-6.9-66.6-11.1-100.3-12.7c-9.6-0.4-19.2-0.6-28.9-0.6c-14.9,0-282.4,5.1-347.6-126.8
	c-16.1-32.5-27.1-72.3-31.1-120.7c-11.2-137,50.4-226.9,129.8-285.7C608-30.4,814-25.8,962.1,88.4
	C1060.7,164.4,1153.1,279.5,1134.6,437.9z"/>
<path class="st0" d="M941.7,314.7c-41.7-31.2-107-60.7-179.2-80.9c-65.7-18.4-129.8-27.3-180.5-25l-0.3-5.9
	c51.3-2.3,116,6.7,182.3,25.3c72.8,20.4,138.9,50.2,181.1,81.8L941.7,314.7z"/>
<path class="st1" d="M937.3,338.7c0,27.6-5.8,54.9-17,80.2c-0.9,2.1-1.9,4.2-2.9,6.3c-33,67.7-101.8,110.6-177.1,110.6
	c-108.8,0-197.1-88.2-197.1-197.1c0-4.6,0.2-9.1,0.5-13.6c0.1-2.3,0.3-4.6,0.6-6.8c10.2-99.3,94.1-176.7,196-176.7
	C849.1,141.7,937.3,229.9,937.3,338.7z"/>
<path class="st2" d="M920.3,418.9c-0.9,2.1-1.9,4.2-2.9,6.3c-5.8,0.6-11.8,1.1-18.2,1.4c-5.3,0.2-10.7,0.4-16.2,0.4
	c-48.4,0-106.6-8.9-166.1-25.6c-66.3-18.6-126.3-44.6-168.9-73.2c-1.5-1-2.9-1.9-4.3-2.9c0.1-2.3,0.3-4.6,0.6-6.8
	c2.3,1.6,4.6,3.2,7,4.8c42.1,28.3,101.5,54,167.2,72.4c59,16.5,116.7,25.4,164.5,25.4c5.5,0,10.8-0.1,16-0.3
	C906.5,420.3,913.6,419.7,920.3,418.9z"/>
<path class="st0" d="M883,422.1c-48.4,0-106.6-8.9-166.1-25.6C650.6,378,590.6,352,548,323.3c-43.5-29.2-63.9-58-57.5-81.1
	c6.5-23.1,38.9-37,91.2-39.4l0.3,5.9c-24.5,1.1-44.4,4.7-59.2,10.8s-23.8,14.2-26.6,24.3c-2.8,10.1,0.6,21.7,10.1,34.6
	s24.7,26.4,45,40c42.1,28.3,101.5,54,167.2,72.4c59,16.5,116.7,25.4,164.5,25.4c5.5,0,10.8-0.1,16-0.3c24.5-1.1,44.4-4.7,59.2-10.8
	c14.8-6.1,23.8-14.2,26.6-24.3c5.1-18.1-10.2-41.5-43.1-66.1l3.5-4.7c16.9,12.6,29.4,25.1,37.2,37c8.3,12.8,11,24.7,8,35.4
	c-6.5,23.1-38.9,37-91.2,39.4C894,422,888.5,422.1,883,422.1z"/>
<circle class="st0" cx="745.5" cy="103.9" r="2.3"/>
<circle class="st0" cx="445.9" cy="200.2" r="2.3"/>
<circle class="st0" cx="437.6" cy="352.3" r="2.3"/>
<circle class="st0" cx="898.3" cy="117.4" r="1.5"/>
<circle class="st0" cx="1079.7" cy="329.7" r="1.5"/>
<circle class="st0" cx="996.9" cy="260.4" r="1.5"/>
<circle class="st0" cx="582.2" cy="151.3" r="1.5"/>
<circle class="st0" cx="991.6" cy="309.4" r="1.5"/>
<circle class="st0" cx="455.7" cy="460.6" r="1.5"/>
<circle class="st0" cx="545.3" cy="522.4" r="1.5"/>
<polygon class="st0" points="675.5,40.8 673.4,40.8 673.4,38.7 672.3,38.7 672.3,40.8 670.2,40.8 670.2,41.9 672.3,41.9 672.3,44 
	673.4,44 673.4,41.9 675.5,41.9 "/>
<polygon class="st0" points="899.8,552.7 897.7,552.7 897.7,550.6 896.6,550.6 896.6,552.7 894.5,552.7 894.5,553.8 896.6,553.8 
	896.6,555.8 897.7,555.8 897.7,553.8 899.8,553.8 "/>
<polygon class="st0" points="1039,521.8 1037,521.8 1037,519.7 1035.8,519.7 1035.8,521.8 1033.8,521.8 1033.8,522.9 1035.8,522.9 
	1035.8,525 1037,525 1037,522.9 1039,522.9 "/>
<circle class="st3" cx="743.2" cy="184.4" r="16.6"/>
<circle class="st3" cx="616" cy="305.6" r="16.6"/>
<circle class="st3" cx="798.9" cy="471.9" r="16.6"/>
<circle class="st3" cx="743.2" cy="331.2" r="16.6"/>
<circle class="st3" cx="624.3" cy="422.3" r="16.6"/>
<circle class="st3" cx="832" cy="242.4" r="16.6"/>
<circle class="st3" cx="887" cy="354.5" r="16.6"/>
<circle class="st4" cx="743.2" cy="258.9" r="21.8"/>
<path class="st5" d="M743.2,227.3c-17,0-30.9,13.8-30.9,30.9s30.9,73,30.9,73s30.9-56,30.9-73S760.3,227.3,743.2,227.3z
	 M743.2,273.2c-7.9,0-14.3-6.4-14.3-14.3s6.4-14.3,14.3-14.3c7.9,0,14.3,6.4,14.3,14.3C757.5,266.8,751.1,273.2,743.2,273.2
	L743.2,273.2L743.2,273.2z"/>
<circle class="st4" cx="624.3" cy="352.3" r="21.8"/>
<path class="st5" d="M624.3,320.6c-17,0-30.9,13.8-30.9,30.9s30.9,73,30.9,73s30.9-56,30.9-73S641.4,320.6,624.3,320.6z
	 M624.3,366.6c-7.9,0-14.3-6.4-14.3-14.3s6.4-14.3,14.3-14.3c7.9,0,14.3,6.4,14.3,14.3S632.2,366.6,624.3,366.6L624.3,366.6
	L624.3,366.6z"/>
<circle class="st4" cx="887" cy="284.5" r="21.8"/>
<path class="st5" d="M887,252.9c-17,0-30.9,13.8-30.9,30.9c0,17,30.9,73,30.9,73s30.9-56,30.9-73C917.9,266.7,904,252.9,887,252.9z
	 M887,298.8c-7.9,0-14.3-6.4-14.3-14.3s6.4-14.3,14.3-14.3c7.9,0,14.3,6.4,14.3,14.3S894.9,298.8,887,298.8L887,298.8z"/>
<circle class="st4" cx="743.2" cy="112.1" r="21.8"/>
<path class="st5" d="M743.2,80.5c-17,0-30.9,13.8-30.9,30.9s30.9,73,30.9,73s30.9-56,30.9-73S760.3,80.5,743.2,80.5z M743.2,126.5
	c-7.9,0-14.3-6.4-14.3-14.3s6.4-14.3,14.3-14.3c7.9,0,14.3,6.4,14.3,14.3C757.5,120,751.1,126.5,743.2,126.5L743.2,126.5z"/>
<circle class="st4" cx="798.9" cy="401.9" r="21.8"/>
<path class="st5" d="M798.9,370.3c-17,0-30.9,13.8-30.9,30.9s30.9,73,30.9,73s30.9-56,30.9-73S816,370.3,798.9,370.3z M798.9,416.2
	c-7.9,0-14.3-6.4-14.3-14.3s6.4-14.3,14.3-14.3c7.9,0,14.3,6.4,14.3,14.3S806.8,416.2,798.9,416.2L798.9,416.2z"/>
<circle class="st4" cx="616" cy="234.1" r="21.8"/>
<path class="st5" d="M616,202.5c-17,0-30.9,13.8-30.9,30.9s30.9,73,30.9,73s30.9-56,30.9-73S633.1,202.5,616,202.5z M616,248.4
	c-7.9,0-14.3-6.4-14.3-14.3s6.4-14.3,14.3-14.3c7.9,0,14.3,6.4,14.3,14.3S623.9,248.4,616,248.4L616,248.4z"/>
<circle class="st4" cx="832" cy="173.1" r="21.8"/>
<path class="st5" d="M832,141.5c-17,0-30.9,13.8-30.9,30.9s30.9,73,30.9,73s30.9-56,30.9-73S849.1,141.5,832,141.5z M832,187.4
	c-7.9,0-14.3-6.4-14.3-14.3s6.4-14.3,14.3-14.3c7.9,0,14.3,6.4,14.3,14.3S839.9,187.4,832,187.4L832,187.4L832,187.4z"/>
<path class="st3" d="M415,757.2c0,10.7-92.9,19.4-207.5,19.4S0,767.9,0,757.2s85.4-34.7,200-34.7S415,746.5,415,757.2z"/>
<rect x="137.4" y="128.5" class="st6" width="81.4" height="67.4"/>
<polygon class="st7" points="277.3,692.5 284.3,719.4 265.5,722.4 256.8,694.3 "/>
<polygon class="st7" points="144.3,688.4 144.3,717.1 124.4,717.1 127.3,688.4 "/>
<path class="st6" d="M262,717.1c0,0,14.1-6.4,22.3,0s12.3,21.1,12.3,21.1s21.1,26.9-3.5,25.8s-25.8-4.1-25.8-8.2s1.2-8.8-2.9-10.5
	s-5.9-10-4.7-12.3S262,717.1,262,717.1z"/>
<path class="st6" d="M147.8,712.4c0,0-19.3-12.4-23.4-2.7s-10,22-10,22s-16.4,25.8,4.1,26.4s24-2.3,25.8-7.6s0-9.4,3.5-9.4
	s5.3-7.6,3.5-11.1S147.8,712.4,147.8,712.4z"/>
<path class="st7" d="M203.4,168.2c0,0-4.7,26.4,7.6,28.1s24.6,7,25.2,10.5s-48,41-48,41l-29.9-9.4c0,0-29.9-7.6-28.7-13.5
	s3.5-14.1,3.5-14.1s34-7,34.6-17.6s4.7-27.5,4.7-27.5L203.4,168.2z"/>
<path class="st2" d="M203.4,168.2c0,0-4.7,26.4,7.6,28.1s24.6,7,25.2,10.5s-48,41-48,41l-29.9-9.4c0,0-29.9-7.6-28.7-13.5
	s3.5-14.1,3.5-14.1s34-7,34.6-17.6s4.7-27.5,4.7-27.5L203.4,168.2z"/>
<path class="st6" d="M126.1,333.4c0,0,21.2,20.3,63.3,18.3s38.6,12.7,38.6,12.7l-1.8,23.4c0,0,22.3,97.8,19.3,149.4
	c0,0,1.2,24.6,9.4,38.1c8.2,13.5,30.5,113.1,26.9,120.7s-29.3,4.7-29.3,4.7s-24-90.8-35.7-111.3S204,557.2,204,557.2l-39.8-116
	l-5.3,50.4c0,0,0.6,39.8,0.6,43.4s-0.6,31.6-2.9,37.5s-11.1,99.6-5.9,115.4s-27.5,7-27.5,7s-10-101.9-7-121.9s-4.7-55.7-4.7-55.7
	s-22.3-109-10-126.5c0,0,8.2-59.8,12.3-59.2L126.1,333.4z"/>
<circle class="st7" cx="186.7" cy="148.5" r="32.2"/>
<path class="st1" d="M104.4,352.1c0.6,1.8,7.6-1.9,14.3-5.9c6.5-3.9,12.6-8.1,12.6-8.1c7,22.3,51.6,13.5,51.6,13.5s0.1,0.2,0.3,0.4
	c1.5,2,7.8,10.3,15.5,16c8.8,6.4,29.3-8.8,29.3-8.8s31.9-76.4,36-116.8c0.9-8.9,0.5-16.1-2-20.3c-13.5-23.4-32.4-20.5-32.4-20.5
	c-3.1,8.2-28.5,20.5-28.5,20.5l-25.2,4.7c-25.2,4.7-32.8-21.7-32.8-21.7c-7-1.2-19.9,11.7-19.9,11.7c-12.3,3.5-18.7,44.5-18.7,44.5
	s1.2,1.5,3.1,4c1.1,1.4,2.4,3,3.8,4.9c0.5,0.6,1,1.3,1.5,2c6.5,8.5,14.7,19.6,16.8,24.4c3.5,8.2-3.5,20.5-11.7,19.9
	S103.3,348.6,104.4,352.1z"/>
<path class="st7" d="M187,383.8c0,0-27.5,34.6-39.8,22.3s35.7-41,35.7-41L187,383.8z"/>
<path class="st7" d="M117.3,373.2c0,0,24,36.3,10.5,37.5s-29.9-24-29.9-24L117.3,373.2z"/>
<path class="st6" d="M114,199.4c3.1-6.8,7.2-13.2,9.2-20.4c2.4-8.7,1.4-17.8,1.2-26.8c-0.2-7.9,0-15.9,2-23.6s5.8-15.1,11.7-20.3
	c15.1-13.5,42.7-14.4,61.1-8.8c7.3,2.2,15,6.4,16.8,13.8c0.3,1.1,0.4,2.3,0.7,3.4c1.5,5.5,7.1,9,9.2,14.3c2.6,6.9-1.4,14.4-1.9,21.7
	c-0.6,8.6,3.6,16.7,7.8,24.2c2.5,4.5,5,9.2,4.8,14.4c-0.2,2.8-1.1,5.5-2.5,7.9c-5,8.9-15.2,14.3-25.3,14.5c-3.3,0.1-6.8-0.4-9.5-2.2
	c-4.5-3.1-5.8-9.3-4.9-14.7s3.7-10.2,5.8-15.3c0.7-1.5,1.2-3.1,1.8-4.7c15.5-8.7,21.1-28.3,12.4-43.8c-8.7-15.5-28.3-21.1-43.8-12.4
	s-21.1,28.3-12.4,43.8c4.7,8.5,13,14.4,22.6,16c1.6,8.1,0.9,16.5-2.1,24.3c-2.5,6.4-6.4,12.1-10.2,17.8c-1.8,2.7-3.7,5.5-6.5,7.3
	c-1.7,1-3.6,1.8-5.5,2.4c-8.1,2.6-16.7,4.7-25.2,3.5s-16.8-6.3-19.7-14.3C108.9,214.1,110.9,206.3,114,199.4z"/>
<ellipse class="st6" cx="184.4" cy="128.6" rx="35.2" ry="19.9"/>
<path class="st2" d="M183.3,352c1.5,2,7.8,10.3,15.5,16c8.8,6.4,29.3-8.8,29.3-8.8s31.9-76.4,36-116.8c-2.2-6.7-4.8-13.3-7.8-19.7
	l6.7,27.2c0,0-30.2,24.3-36.6,34.3s-0.6,43.4,0,48.6s-11.7,7-17.6,6.4s-7,4.7-12.3,4.7C193.9,343.9,188.3,347.9,183.3,352z"/>
<path class="st1" d="M253.2,222.7h8.8c0,0,21.7,43.9,19.3,93.7s-26.4,69.7-53.9,76.2s-39.8,10.5-43.4,6.4s-5.3-38.1-5.3-38.1
	s18.2-17,23.4-17s6.4-5.3,12.3-4.7s18.2-1.2,17.6-6.4s-6.4-38.7,0-48.6S253.2,222.7,253.2,222.7z"/>
<path class="st2" d="M107.6,265.3c1.1,1.4,2.4,3,3.8,4.9l-3.4-7C107.9,263.1,107.8,263.9,107.6,265.3z"/>
<path class="st2" d="M104.4,352.1c0.6,1.8,7.6-1.9,14.3-5.9c-0.1-0.4-0.1-0.7-0.2-1.1c-1.8-7,10.5-24,10.5-24l8.2-22.3l-1.8-29.9
	l-22.6,3.1c6.5,8.5,14.7,19.6,16.8,24.4c3.5,8.2-3.5,20.5-11.7,19.9S103.3,348.6,104.4,352.1z"/>
<path class="st1" d="M116.2,249.6l-11.7,11.7c0,0-8.2,47.5-8.2,50.4s-14.1,21.7-10.5,34.6s5.9,29.9,2.9,33.4s-7,13.5,0,18.2
	s15.8-26.9,36.9-18.7c0,0-12.9-20.5-12.3-22.3s3.5-6.4,1.8-13.5s10.5-24,10.5-24l8.2-22.3l-1.8-29.9L116.2,249.6z"/>
</svg>
