<?xml version="1.0" encoding="utf-8"?>
<!-- Generator: Adobe Illustrator 21.0.2, SVG Export Plug-In . SVG Version: 6.00 Build 0)  -->
<svg version="1.1" id="a12144e9-3c86-4872-a88a-b0ed4a062895"
	 xmlns="http://www.w3.org/2000/svg" xmlns:xlink="http://www.w3.org/1999/xlink" x="0px" y="0px" viewBox="0 0 972 737"
	 style="enable-background:new 0 0 972 737;" xml:space="preserve">
<style type="text/css">
	.st0{fill:#F2F2F2;}
	.st1{fill:#FF6584;}
	.st2{fill:#00BAF4;}
	.st3{fill:#FFB9B9;}
	.st4{fill:#2F2E41;}
	.st5{fill:#D0CDE1;}
	.st6{fill:#575A89;}
	.st7{opacity:0.15;enable-background:new    ;}
</style>
<title>master_plan</title>
<rect width="972" height="619"/>
<circle class="st0" cx="88" cy="103" r="14"/>
<circle class="st0" cx="427" cy="54" r="14"/>
<circle class="st0" cx="418" cy="276" r="25"/>
<circle class="st1" cx="333" cy="62" r="6"/>
<circle class="st1" cx="63" cy="303" r="6"/>
<circle class="st1" cx="894" cy="316" r="6"/>
<circle class="st0" cx="240" cy="196" r="6"/>
<circle class="st0" cx="900" cy="62" r="6"/>
<circle class="st0" cx="88" cy="487" r="6"/>
<circle class="st0" cx="810" cy="429" r="6"/>
<circle class="st0" cx="636" cy="56" r="6"/>
<path class="st0" d="M729,169c-8.3,0-15-6.7-15-15s6.7-15,15-15s15,6.7,15,15l0,0C744,162.3,737.3,169,729,169z M729,141
	c-7.2,0-13,5.8-13,13c0,7.2,5.8,13,13,13s13-5.8,13-13C742,146.8,736.2,141,729,141z"/>
<path class="st0" d="M701,207c-6.1,0-11-4.9-11-11s4.9-11,11-11s11,4.9,11,11l0,0C712,202.1,707.1,207,701,207z M701,187
	c-5,0-9,4-9,9s4,9,9,9s9-4,9-9C710,191,706,187,701,187z"/>
<path class="st0" d="M763,260c-6.1,0-11-4.9-11-11s4.9-11,11-11s11,4.9,11,11l0,0C774,255.1,769.1,260,763,260z M763,240
	c-5,0-9,4-9,9s4,9,9,9s9-4,9-9l0,0C772,244,768,240,763,240z"/>
<path class="st0" d="M743,275c-45.3,0-82-36.7-82-82s36.7-82,82-82s82,36.7,82,82l0,0C824.9,238.3,788.3,274.9,743,275z M743,113
	c-44.2,0-80,35.8-80,80s35.8,80,80,80s80-35.8,80-80C823,148.8,787.2,113,743,113L743,113z"/>
<path class="st0" d="M743,226c-68.4,0-122-14.5-122-33c0-10.8,15.9-20,44.8-26.1l0.4,2c-27.5,5.7-43.2,14.5-43.2,24.1
	c0,16.8,55,31,120,31s120-14.2,120-31c0-9.6-15.8-18.4-43.3-24.2l0.4-2c29,6,44.9,15.3,44.9,26.1C865,211.5,811.4,226,743,226z"/>
<path class="st0" d="M681.4,543.2c-2.8,0-5.6,0-8.3-0.1l0.1-2c4,0.1,8,0.2,12,0.1l0,2C683.9,543.2,682.7,543.2,681.4,543.2z
	 M697.2,542.8l-0.1-2c4-0.2,8-0.6,11.9-1l0.2,2C705.2,542.2,701.2,542.5,697.2,542.8z M661.1,542.4c-4-0.3-8-0.7-12-1.2l0.2-2
	c3.9,0.5,7.9,0.9,11.9,1.2L661.1,542.4z M721.1,540.2l-0.3-2c3.9-0.6,7.9-1.3,11.8-2.1l0.4,2C729.1,538.9,725.1,539.6,721.1,540.2z
	 M637.2,539.5c-3.9-0.7-7.9-1.4-11.8-2.3l0.4-2c3.9,0.8,7.8,1.6,11.7,2.3L637.2,539.5z M744.7,535.5l-0.5-1.9c3.9-1,7.7-2,11.5-3.1
	l0.6,1.9C752.5,533.5,748.6,534.6,744.7,535.5z M613.7,534.4c-3.9-1-7.8-2.2-11.6-3.4l0.6-1.9c3.8,1.2,7.6,2.3,11.5,3.3L613.7,534.4
	z M767.8,528.7l-0.7-1.9c3.7-1.3,7.5-2.7,11.2-4.2l0.7,1.9C775.4,526,771.6,527.4,767.8,528.7z M590.7,527.1
	c-3.8-1.4-7.5-2.9-11.2-4.4l0.8-1.8c3.7,1.5,7.4,3,11.1,4.4L590.7,527.1z M790.2,519.8l-0.8-1.8c3.6-1.6,7.2-3.4,10.7-5.2l0.9,1.8
	C797.4,516.4,793.8,518.1,790.2,519.8z M568.4,517.8c-3.6-1.7-7.2-3.5-10.8-5.4l0.9-1.8c3.5,1.9,7.1,3.7,10.7,5.4L568.4,517.8z
	 M811.6,508.8l-1-1.7c3.4-2,6.9-4,10.2-6.1l1.1,1.7C818.5,504.8,815,506.8,811.6,508.8L811.6,508.8z M547.2,506.4
	c-3.4-2-6.9-4.2-10.2-6.4l1.1-1.7c3.3,2.2,6.7,4.3,10.1,6.4L547.2,506.4z M831.9,496l-1.1-1.6c3.2-2.3,6.5-4.6,9.6-7.1l1.2,1.6
	C838.4,491.3,835.1,493.7,831.9,496L831.9,496z M527,493.2c-3.2-2.3-6.5-4.8-9.6-7.3l1.2-1.6c3.1,2.5,6.3,4.9,9.5,7.2L527,493.2z
	 M851,481.3l-1.3-1.5c3-2.6,6-5.2,9-7.9l1.4,1.5C857,476.1,854,478.7,851,481.3z M508.2,478.1c-3-2.6-6-5.4-8.9-8.1l1.4-1.4
	c2.9,2.7,5.8,5.5,8.8,8.1L508.2,478.1z M868.6,465l-1.4-1.4c2.8-2.8,5.5-5.8,8.2-8.7l1.5,1.3C874.2,459.2,871.4,462.1,868.6,465
	L868.6,465z M490.9,461.4c-2.8-2.9-5.5-5.9-8.1-8.9l1.5-1.3c2.6,3,5.3,6,8,8.8L490.9,461.4z M884.7,447.1l-1.5-1.3
	c2.5-3.1,5-6.2,7.4-9.4l1.6,1.2C889.8,440.8,887.3,444,884.7,447.1L884.7,447.1z M475.1,443.3c-2.5-3.1-4.9-6.4-7.2-9.6l1.6-1.2
	c2.3,3.2,4.7,6.4,7.2,9.5L475.1,443.3z M899.2,427.8l-1.7-1.1c2.2-3.3,4.4-6.7,6.5-10l1.7,1C903.6,421.1,901.4,424.5,899.2,427.8
	L899.2,427.8z M461,423.7c-2.2-3.3-4.3-6.8-6.3-10.2l1.7-1c2,3.4,4.1,6.8,6.3,10.1L461,423.7z M911.8,407.2l-1.8-1
	c1.9-3.5,3.8-7,5.5-10.6l1.8,0.9C915.6,400.1,913.7,403.7,911.8,407.2z M448.8,403c-1.9-3.5-3.7-7.1-5.4-10.8l1.8-0.9
	c1.7,3.6,3.5,7.2,5.3,10.7L448.8,403z M922.5,385.6l-1.8-0.8c1.6-3.6,3.1-7.4,4.5-11.1l1.9,0.7C925.6,378.2,924.1,381.9,922.5,385.6
	z M438.6,381.3c-1.5-3.7-3-7.4-4.4-11.2l1.9-0.7c1.4,3.7,2.8,7.5,4.3,11.1L438.6,381.3z M931.1,363.1l-1.9-0.6
	c1.2-3.8,2.4-7.6,3.5-11.4l1.9,0.5C933.6,355.4,932.4,359.3,931.1,363.1z M430.4,358.7c-1.2-3.8-2.3-7.7-3.3-11.6l1.9-0.5
	c1,3.8,2.1,7.7,3.3,11.5L430.4,358.7z M937.6,339.9l-1.9-0.5c0.9-3.9,1.7-7.8,2.4-11.7l2,0.4C939.4,332.1,938.5,336,937.6,339.9
	L937.6,339.9z M424.2,335.4c-0.8-3.9-1.6-7.9-2.2-11.8l2-0.3c0.6,3.9,1.4,7.9,2.2,11.7L424.2,335.4z M942,316.2l-2-0.3
	c0.5-3.9,1-7.9,1.4-11.9l2,0.2C943,308.3,942.5,312.3,942,316.2L942,316.2z M420.3,311.7c-0.5-4-0.9-8-1.2-12l2-0.1
	c0.3,4,0.7,8,1.1,11.9L420.3,311.7z M944.2,292.3l-2-0.1c0.2-4,0.3-8,0.3-11.9h2C944.4,284.2,944.4,288.3,944.2,292.3L944.2,292.3z
	 M418.5,287.7c-0.1-2.5-0.1-5-0.1-7.4c0-1.5,0-3.1,0-4.6l2,0c0,1.5,0,3,0,4.6c0,2.5,0,4.9,0.1,7.4L418.5,287.7z M942.4,277.4
	c0-4-0.2-8-0.4-11.9l2-0.1c0.2,4,0.4,8,0.4,12L942.4,277.4z M421,263.7l-2-0.1c0.2-4,0.6-8,1-12l2,0.2
	C421.5,255.7,421.2,259.7,421,263.7z M941.1,253.6c-0.4-3.9-0.9-7.9-1.5-11.9l2-0.3c0.6,4,1.1,8,1.5,11.9L941.1,253.6z M423.5,240
	l-2-0.3c0.6-4,1.3-7.9,2.1-11.9l2,0.4C424.8,232.1,424.1,236,423.5,240z M937.6,229.9c-0.8-3.9-1.6-7.8-2.6-11.7l1.9-0.5
	c0.9,3.9,1.8,7.8,2.6,11.8L937.6,229.9z M428.3,216.5l-1.9-0.5c1-3.9,2-7.8,3.2-11.6l1.9,0.6C430.3,208.8,429.2,212.7,428.3,216.5z
	 M931.9,206.7c-1.1-3.8-2.3-7.6-3.6-11.4l1.9-0.7c1.3,3.8,2.5,7.6,3.7,11.5L931.9,206.7z M435.2,193.6l-1.9-0.7
	c1.3-3.8,2.8-7.6,4.3-11.3l1.9,0.8C437.9,186.1,436.5,189.9,435.2,193.6z M924.2,184.1c-1.5-3.7-3-7.4-4.6-11l1.8-0.8
	c1.6,3.6,3.2,7.4,4.7,11.1L924.2,184.1z M444.1,171.4l-1.8-0.8c1.7-3.6,3.4-7.3,5.3-10.8l1.8,0.9
	C447.5,164.2,445.8,167.8,444.1,171.4z M914.4,162.4c-1.8-3.5-3.7-7.1-5.6-10.5l1.7-1c2,3.5,3.9,7,5.7,10.6L914.4,162.4z
	 M455.1,150.2l-1.7-1c2-3.5,4.1-6.9,6.3-10.3l1.7,1.1C459.2,143.3,457.1,146.7,455.1,150.2L455.1,150.2z M902.6,141.6
	c-2.1-3.4-4.3-6.7-6.6-10l1.6-1.1c2.3,3.3,4.5,6.6,6.6,10L902.6,141.6z M468,130l-1.6-1.2c2.3-3.3,4.7-6.5,7.2-9.7l1.6,1.2
	C472.7,123.5,470.3,126.8,468,130z M889,122c-2.4-3.2-4.9-6.3-7.5-9.3l1.5-1.3c2.6,3.1,5.1,6.2,7.5,9.4L889,122z M482.6,111.1
	l-1.5-1.3c2.6-3,5.3-6.1,8-9l1.5,1.4C487.9,105.1,485.2,108.1,482.6,111.1z M873.7,103.7c-2.7-2.9-5.5-5.8-8.3-8.6l1.4-1.4
	c2.8,2.8,5.6,5.7,8.3,8.7L873.7,103.7z M498.9,93.6l-1.4-1.4c2.9-2.8,5.8-5.6,8.8-8.2l1.3,1.5C504.7,88.1,501.8,90.9,498.9,93.6
	L498.9,93.6z M856.8,86.9c-2.9-2.7-6-5.3-9-7.8l1.3-1.5c3.1,2.5,6.1,5.2,9.1,7.9L856.8,86.9z M516.8,77.7l-1.3-1.6
	c3.1-2.5,6.3-5,9.5-7.4l1.2,1.6C523,72.8,519.8,75.2,516.8,77.7z M838.3,71.6c-3.2-2.4-6.4-4.7-9.7-7l1.1-1.7c3.3,2.3,6.6,4.6,9.8,7
	L838.3,71.6z M535.9,63.5l-1.1-1.7c3.3-2.2,6.7-4.4,10.1-6.5l1,1.7C542.6,59.1,539.2,61.3,535.9,63.5z M818.6,58.1
	c-3.4-2.1-6.9-4.1-10.3-6.1l1-1.7c3.5,1.9,7,4,10.4,6.1L818.6,58.1z M556.3,51.1l-1-1.8c3.5-1.9,7.1-3.8,10.7-5.5l0.9,1.8
	C563.4,47.4,559.8,49.2,556.3,51.1L556.3,51.1z M797.7,46.5c-3.6-1.8-7.2-3.5-10.8-5.1l0.8-1.8c3.7,1.6,7.3,3.3,10.9,5.1L797.7,46.5
	z M577.7,40.6l-0.8-1.8c3.7-1.6,7.4-3.1,11.1-4.5l0.7,1.9C585.1,37.5,581.4,39.1,577.7,40.6z M775.8,36.8c-3.7-1.4-7.5-2.8-11.3-4.1
	l0.6-1.9c3.8,1.3,7.6,2.7,11.4,4.1L775.8,36.8z M600.1,32.2l-0.6-1.9c3.8-1.2,7.7-2.4,11.5-3.5l0.5,1.9
	C607.7,29.8,603.8,30.9,600.1,32.2z M753.1,29.2c-3.8-1.1-7.7-2.1-11.6-3l0.5-1.9c3.9,0.9,7.8,1.9,11.7,3L753.1,29.2z M623.1,25.8
	l-0.4-1.9c3.9-0.9,7.9-1.7,11.8-2.4l0.4,2C630.9,24.1,626.9,24.9,623.1,25.8L623.1,25.8z M729.9,23.7c-3.9-0.7-7.9-1.4-11.8-1.9
	l0.3-2c4,0.6,8,1.2,11.9,1.9L729.9,23.7z M646.6,21.5l-0.3-2c4-0.5,8-1,12-1.3l0.2,2C654.5,20.6,650.5,21,646.6,21.5L646.6,21.5z
	 M706.2,20.4c-3.9-0.4-7.9-0.7-11.9-0.8l0.1-2c4,0.2,8,0.5,12,0.9L706.2,20.4z M670.4,19.4l-0.1-2c3.7-0.2,7.4-0.2,11.1-0.2l0.9,0
	l0,2l-0.9,0C677.8,19.2,674,19.3,670.4,19.4L670.4,19.4z"/>
<path class="st0" d="M455.9,386c9.4-11.3,19.9-22,32.8-29s28.5-10.2,42.5-6c10.5,3.1,19.5,10,27.8,17.2c17,14.7,32.7,31.6,52.7,41.7
	s46.5,12.1,63.5-2.6c13.5-11.6,19.2-31.7,35.3-39.3c15.9-7.5,34.3,0.6,50.4,7.5c21.9,9.4,44.5,17,67.6,22.6
	c15.7,3.8,31.8,6.7,47.8,5.2s32.1-7.9,42.6-20.2"/>
<path class="st2" d="M379.4,329.7h40.4c2.8-15.9,2.8-32.2,0-48.1h-40.4C384,297.3,384,314,379.4,329.7z"/>
<path class="st2" d="M52.4,351.7h40.4c2.8-15.9,2.8-32.2,0-48.1H52.4C57,319.3,57,336,52.4,351.7z"/>
<path class="st2" d="M755.4,205.7h40.4c2.8-15.9,2.8-32.2,0-48.1h-40.4C760,173.3,760,190,755.4,205.7z"/>
<polygon class="st3" points="206.7,657.4 198.2,684.4 224.4,686.7 222.1,657.4 "/>
<polygon class="st3" points="333.6,678.2 333.6,715.1 363.7,715.1 355.2,678.2 "/>
<path class="st4" d="M226.7,409.7l-12.3,117c0,0-15.4,103.1-12.3,119.3s-0.8,18.5-0.8,18.5h23.1c0,0-0.8-10,3.8-14.6
	s2.3-18.5,2.3-18.5L289,452.8l33.1,100c0,0,5.4,110,6.2,111.6s3.1,22.3,3.1,22.3h28.5c0,0-3.8-12.3,1.5-16.2s10-0.8,5.4-7.7
	s-6.2-15.4-4.6-19.2s1.5-19.2,1.5-19.2s-2.3-207.7-15.4-214.7S226.7,409.7,226.7,409.7z"/>
<path class="st4" d="M341.8,695.6c0,0-13.2-2-13.2-1.3s-15.8,43.4,0,42.8s75.7-9.2,71.7-25s-23.7-11.2-23.7-11.2l-17.8-9.9
	L341.8,695.6z"/>
<path class="st4" d="M212.2,681.9c0,0,13.2-2,13.2-1.3s15.8,43.4,0,42.8s-75.6-9.2-71.7-25s23.7-11.2,23.7-11.2l17.8-9.9
	L212.2,681.9z"/>
<path class="st5" d="M275.2,503.5H314c2.7-15.3,2.7-31,0-46.3h-38.9C279.5,472.3,279.5,488.4,275.2,503.5z"/>
<path class="st2" d="M263.8,505.2h38.9c2.7-15.3,2.7-31,0-46.3h-38.9C268.2,474,268.2,490,263.8,505.2z"/>
<circle class="st3" cx="290" cy="159.6" r="30.3"/>
<path class="st3" d="M265.9,155.8c0,0-5.4,53.9-12.3,57.7s53.1,7.7,53.1,7.7s-14.6-49.2-10-53.9
	C301.3,162.7,265.9,155.8,265.9,155.8z"/>
<path class="st6" d="M330.6,211.9c0,0-21.5-20.8-46.2-16.9s-42.3,8.5-42.3,8.5s-37.7,20-38.5,36.2s13.8,76.9,13.8,76.9
	s6.9,99.3,7.7,99.3s130-1.5,130-1.5L331.3,285L330.6,211.9z"/>
<path class="st3" d="M325.5,397.1c-5,1.3-13.6-0.5-22.6-3.5c-16-5.3-33.2-14-33.2-14s-55.4-22.3-71.6-33.9s-5.4-57.7-5.4-57.7
	l24.6,7.7l-1.5,28.5l60.8,39.2c9.6,0.9,19,2.8,28.1,5.7c10.2,3.4,20.2,8.6,23.8,16.7c0.6,1.2,1,2.5,1.2,3.9
	C330.5,393.9,328.8,396.2,325.5,397.1z"/>
<path class="st7" d="M328.6,385.8c-1.1,4-2.1,7.8-3.1,11.3c-5,1.3-13.6-0.5-22.6-3.5l1.9-24.5C315.1,372.5,325,377.8,328.6,385.8z"
	/>
<path class="st3" d="M317.5,273.5l-4.6,40.8l-7.7,100.6c0,0-42.4,51-18.5,52.5s36.9-50,36.9-50s23.9-81.6,23.1-98.5s0-45.4,0-45.4
	L317.5,273.5z"/>
<path class="st4" d="M324.2,156.2c0.8-0.3,1.5-0.8,2.2-1.3c1.7-1.6,1.4-4.3,0.7-6.5c-0.7-2.2-1.8-4.5-1.3-6.7c0.2-1,0.8-2,1-3.1
	c0.4-2.5-1.6-4.8-3.9-6.1c-2.2-1.2-4.8-1.9-6.9-3.3c-3.2-2.2-5-6.1-8.3-8.3c-3.2-2.1-7.3-2.2-11.1-2.2l-11.4,0c-6,0-12.5,0.2-17,4.2
	c-1.4,1.2-2.4,2.7-3.8,3.9c-2.8,2.4-6.5,3.4-9.5,5.4c-4.6,3.1-7.4,8.3-7.3,13.9c0.1,5.1,2.6,10,1.9,15c-0.4,3.4-2.3,6.6-1.8,10
	c0.6,4,4.2,6.9,8,8.3s7.9,2,11.5,3.7c3,1.4,6.1,3.6,9.2,2.6c2.7-0.8,4.1-3.6,5.1-6.3c1.1-3.1,1.9-6.2,2.4-9.4c0.4-2.4,0.6-5,2.1-6.9
	c1.7-2.2,4.4-3.4,7.1-3.1c6.2,0.5,9.6,11.1,15.3,8.6c2.8-1.2,5-4.9,7.2-6.9C318.2,159.6,321.1,157.7,324.2,156.2z"/>
<path class="st6" d="M212.8,232.7c0,0-15.4,5.4-21.5,26.9s-3.8,36.2-3.8,36.2l32.3,5.4L212.8,232.7z"/>
<path class="st6" d="M315.2,210.4c0,0,27.7-6.2,31.5,20c2.4,17.6,3.7,35.3,3.8,53.1c0,0-26.2-12.3-37.7,0L315.2,210.4z"/>
<rect x="387" y="297" class="st0" width="27" height="3"/>
<rect x="60" y="322" class="st0" width="27" height="3"/>
<rect x="387" y="304" class="st0" width="27" height="3"/>
<rect x="764" y="169" class="st0" width="27" height="3"/>
<rect x="764" y="183" class="st0" width="27" height="3"/>
<rect x="764" y="176" class="st0" width="27" height="3"/>
</svg>
